<svg aria-hidden="true" style="position: absolute; width: 0; height: 0; overflow: hidden;" version="1.1" xmlns="http://www.w3.org/2000/svg" xmlns:xlink="http://www.w3.org/1999/xlink">
<defs>
<symbol id="icon-hidden-text" viewBox="0 0 32 32">
<path stroke="currentColor" fill="none" stroke-linejoin="miter" stroke-linecap="round" stroke-miterlimit="4" stroke-width="1" d="M19.214 22.65c-1.086 0.504-2.291 0.833-3.56 0.833-4.779 0-8.654-4.655-8.654-5.838 0-0.67 1.245-2.456 3.194-3.878M23.269 19.516c0.662-0.797 1.038-1.502 1.038-1.871 0-1.183-3.874-5.837-8.654-5.837 2.103 0 3.808 1.691 3.808 3.777M15.654 19.362c-2.103 0-3.808-1.691-3.808-3.777M25 11.807c-2.636-2.181-5.713-3.434-9-3.434-1.185 0-2.342 0.163-3.462 0.473M7 11.807c0.244-0.202 0.492-0.396 0.744-0.582M7 7l16.714 16.875"></path>
</symbol>
<symbol id="icon-burger" viewBox="0 0 32 32">
<path stroke="currentColor" fill="none" stroke-linejoin="miter" stroke-linecap="round" stroke-miterlimit="4" stroke-width="1" d="M7.5 9.5h17M7.5 21.5h17M7.5 15.5h17"></path>
</symbol>
<symbol id="icon-bookmark-filled" viewBox="0 0 32 32">
<path stroke-linejoin="round" stroke-linecap="round" stroke-miterlimit="4" stroke-width="0.6667" d="M15.996 4.333c2.436 0 4.583 0.333 5.902 0.596 0.781 0.156 1.4 0.689 1.629 1.434 0.505 1.644 1.223 4.853 1.131 9.63-0.102 5.313-1.083 8.71-1.759 10.441-0.185 0.475-0.791 0.596-1.201 0.164-0.773-0.815-1.86-1.917-2.901-2.816-0.52-0.449-1.036-0.854-1.501-1.148-0.448-0.284-0.909-0.507-1.301-0.507-0.204 0-0.424 0.059-0.642 0.145-0.222 0.087-0.464 0.21-0.717 0.357-0.506 0.294-1.080 0.698-1.667 1.147-1.174 0.9-2.424 2.001-3.316 2.815-0.453 0.413-1.079 0.226-1.217-0.297-0.471-1.787-1.103-5.144-1.103-10.294 0-5.004 0.671-8.108 1.143-9.674 0.218-0.723 0.82-1.236 1.582-1.389 1.316-0.265 3.479-0.603 5.938-0.603z"></path>
</symbol>
<symbol id="icon-arrow-left-small" viewBox="0 0 32 32">
<path stroke="currentColor" fill="none" stroke-linejoin="round" stroke-linecap="round" stroke-miterlimit="4" stroke-width="1" d="M22 16.004l-12-0M10 16.004l5.384 5.386M10 16.004l5.384-5.386"></path>
</symbol>
<symbol id="icon-logout" viewBox="0 0 32 32">
<path stroke="currentColor" fill="none" stroke-linejoin="round" stroke-linecap="round" stroke-miterlimit="4" stroke-width="0.6667" d="M13.077 6.5h-3.654c-1.614 0-2.923 1.309-2.923 2.923v13.154c0 1.614 1.309 2.923 2.923 2.923h3.654M11.5 16h14.615M26.115 16l-4.385 4.385M26.115 16l-4.385-4.385"></path>
</symbol>
<symbol id="icon-x-close" viewBox="0 0 32 32">
<path stroke="currentColor" fill="none" stroke-linejoin="round" stroke-linecap="round" stroke-miterlimit="4" stroke-width="0.6667" d="M7 7l9 9M16 16l-9 9M16 16l9 9M16 16l9-9"></path>
</symbol>
<symbol id="icon-arrow-left" viewBox="0 0 32 32">
<path stroke="currentColor" fill="none" stroke-linejoin="round" stroke-linecap="round" stroke-miterlimit="4" stroke-width="0.6667" d="M25.995 16l-19.996 0.004M5.998 16.004l5.384 5.386M5.998 16.004l5.384-5.386"></path>
</symbol>
<symbol id="icon-arrow-right" viewBox="0 0 32 32">
<path stroke="currentColor" fill="none" stroke-linejoin="round" stroke-linecap="round" stroke-miterlimit="4" stroke-width="0.6667" d="M6 16.004l19.996-0.004M25.996 16l-5.384-5.386M25.996 16l-5.384 5.386"></path>
</symbol>
<symbol id="icon-chevron-down" viewBox="0 0 32 32">
<path stroke="currentColor" fill="none" stroke-linejoin="round" stroke-linecap="round" stroke-miterlimit="4" stroke-width="1.5" d="M25 11.5l-9 9-9-9"></path>
</symbol>
<symbol id="icon-filter" viewBox="0 0 32 32">
<path stroke="currentColor" fill="none" stroke-linejoin="miter" stroke-linecap="butt" stroke-miterlimit="4" stroke-width="0.6667" d="M8.908 7.5h14.183c1.054 0 1.908 0.854 1.908 1.908 0 0.487-0.186 0.956-0.521 1.31l-6.402 6.782v5.878c0 0.983-1.027 1.628-1.912 1.201l-1.487-0.716c-0.461-0.222-0.755-0.689-0.755-1.201v-5.162l-6.402-6.782c-0.334-0.354-0.521-0.823-0.521-1.31 0-1.054 0.854-1.908 1.908-1.908z"></path>
</symbol>
<symbol id="icon-delete" viewBox="0 0 32 32">
<path stroke="currentColor" fill="none" stroke-linejoin="round" stroke-linecap="round" stroke-miterlimit="4" stroke-width="0.6667" d="M16 21.846v-8.769M6.5 9.423h2.192M25.5 9.423h-2.192M19.654 9.423h-7.308M19.654 9.423v-1.462c0-0.807-0.654-1.462-1.462-1.462h-4.385c-0.807 0-1.462 0.654-1.462 1.462v1.462M19.654 9.423h3.654M12.346 9.423h-3.654M23.308 9.423v13.154c0 1.614-1.309 2.923-2.923 2.923h-8.769c-1.614 0-2.923-1.309-2.923-2.923v-13.154"></path>
</symbol>
<symbol id="icon-bookmark" viewBox="0 0 32 32">
<path stroke="currentColor" fill="none" stroke-linejoin="round" stroke-linecap="round" stroke-miterlimit="4" stroke-width="0.6667" d="M15.996 4.333c2.436 0 4.583 0.333 5.902 0.596 0.781 0.156 1.4 0.689 1.629 1.434 0.505 1.644 1.223 4.853 1.131 9.63-0.102 5.313-1.083 8.71-1.759 10.441-0.185 0.475-0.791 0.596-1.201 0.164-0.773-0.815-1.86-1.917-2.901-2.816-0.52-0.449-1.036-0.854-1.501-1.148-0.448-0.284-0.909-0.507-1.301-0.507-0.204 0-0.424 0.059-0.642 0.145-0.222 0.087-0.464 0.21-0.717 0.357-0.506 0.294-1.080 0.698-1.667 1.147-1.174 0.9-2.424 2.001-3.316 2.815-0.453 0.413-1.079 0.226-1.217-0.297-0.471-1.787-1.103-5.144-1.103-10.294 0-5.004 0.671-8.108 1.143-9.674 0.218-0.723 0.82-1.236 1.582-1.389 1.316-0.265 3.479-0.603 5.938-0.603z"></path>
</symbol>
<symbol id="icon-clock" viewBox="0 0 32 32">
<path stroke="currentColor" fill="none" stroke-linejoin="round" stroke-linecap="round" stroke-miterlimit="4" stroke-width="0.6667" d="M16 10.154v6.577l4.385 3.654M25.5 16c0 5.247-4.253 9.5-9.5 9.5s-9.5-4.253-9.5-9.5c0-5.247 4.253-9.5 9.5-9.5s9.5 4.253 9.5 9.5z"></path>
</symbol>
<symbol id="icon-close-circle" viewBox="0 0 32 32">
<path stroke="currentColor" fill="none" stroke-linejoin="miter" stroke-linecap="butt" stroke-miterlimit="4" stroke-width="1.3333" d="M25.5 16c0 5.247-4.253 9.5-9.5 9.5s-9.5-4.253-9.5-9.5c0-5.247 4.253-9.5 9.5-9.5s9.5 4.253 9.5 9.5z"></path>
<path stroke="currentColor" fill="none" stroke-linejoin="miter" stroke-linecap="round" stroke-miterlimit="4" stroke-width="1.3333" d="M19.697 12.346l-3.699 3.699M15.998 16.046l-3.699 3.699M15.998 16.046l3.699 3.699M15.998 16.046l-3.699-3.699"></path>
</symbol>
</defs>
</svg>
